<svg xmlns="http://www.w3.org/2000/svg" viewBox="0 0 143.61 76.16"><title>logo@vector</title><g id="Layer_2" data-name="Layer 2"><g id="Layer_1_copy" data-name="Layer 1 copy"><path d="M85.46.07h0S79,.36,69,1.58C12.82,7.14,7.21,41.57,2.86,54.27l-2.33,10h0a30.58,30.58,0,0,0-.4,5.55c-.39,3.4,0,6.16,2.36,6.32,6.32.45,3.33-9.87,24.92-9.87,10.95,0,16.26,5,35,5,47.56,0,51.25-33.13,63.78-53.79C134,5.7,141.66,13,143.24,10.36,145.41,6.73,139.32-.8,85.46.07Zm-31,12.19.07-.15,7.65,6.59,5.11-8.9,5.11,8.9L80,12.11l.07.15S86.21,22,80,29.73a53.39,53.39,0,0,0-25.62-.22C48.48,21.86,54.43,12.26,54.43,12.26ZM89.35,6c3.53,0,10.28.28,15.72,2.13,7.09,2.41,7.09,5.66,7.08,7,0,17.19-6.6,39.16-38,46.15a46.22,46.22,0,0,1-10,1.08c-15.94,0-33-8.14-39.65-18.93-2.91-4.71-3.35-9.18-1.3-13.26.05-.11.07-.12.11-.22.35-.73,5.28-10.53,19.65-15.39l2.83-1A22.32,22.32,0,1,0,85,6.1l.7,0h.16S87.25,6,89.34,6"/></g></g></svg>